<?xml version="1.0" encoding="utf-8"?>

<!DOCTYPE svg PUBLIC "-//W3C//DTD SVG 1.1//EN" "http://www.w3.org/Graphics/SVG/1.1/DTD/svg11.dtd">
<svg version="1.1" id="Layer_1" xmlns="http://www.w3.org/2000/svg" xmlns:xlink="http://www.w3.org/1999/xlink" x="0px" y="0px"
fill="#fff" fill-opacity="0.2"
	 viewBox="0 0 1653.131 1653.682" enable-background="new 0 0 1653.131 1653.682" xml:space="preserve">
<g>
	<path d="M1582.407,806.969c-2.489-71.371-11.257-123.645-27.44-183.221l42.297-11.781c17.732,65.271,26.501,120.872,29.035,193.859
		L1582.407,806.969z"/>
	<path d="M1529.297,808.351c-2.33-66.34-10.402-114.706-25.51-170.349l42.297-11.781c17.184,63.268,24.806,115.194,27.105,180.987
		L1529.297,808.351z"/>
	<path d="M1476.187,809.734c-2.128-59.969-9.2-104.498-23.58-157.476l42.297-11.781c14.889,54.842,22.864,102.488,25.175,168.114
		L1476.187,809.734z"/>
	<path d="M1423.077,811.116c-1.995-55.672-8.531-96.243-21.65-144.604l42.297-11.781c14.905,54.919,21.249,99.069,23.245,155.242
		L1423.077,811.116z"/>
	<path d="M1369.967,812.498c-1.861-51.242-7.868-88.023-19.72-131.731l42.297-11.781c12.687,46.772,19.318,86.748,21.315,142.37
		L1369.967,812.498z"/>
	<path d="M1316.857,813.88c-1.591-43.193-6.244-76.247-17.79-118.859l42.297-11.781c12.296,45.353,17.639,81.524,19.385,129.497
		L1316.857,813.88z"/>
	<path d="M1210.638,816.645c-1.259-32.79-4.538-58.386-13.93-93.114l42.297-11.781c10.36,38.271,14.143,67.076,15.525,103.753
		L1210.638,816.645z"/>
	<path d="M1157.528,818.027c-1.125-28.491-3.857-50.092-12-80.242l42.297-11.781c9.025,33.384,12.331,58.108,13.595,90.88
		L1157.528,818.027z"/>
	<path d="M1104.418,819.409c-1.006-24.522-3.235-42.016-10.07-67.369l42.297-11.781c7.887,29.207,10.561,50.222,11.665,78.008
		L1104.418,819.409z"/>
	<path d="M945.088,823.556c-0.636-11.846-0.874-14.693-4.28-28.752l42.297-11.781c4.229,15.824,5.192,25.127,5.875,39.391
		L945.088,823.556z"/>
	<path d="M891.978,824.939c-0.284-2.563,0.634-1.606-2.349-15.88l42.297-11.781c4.047,16.942,3.264,17.721,3.945,26.518
		L891.978,824.939z"/>
	<path d="M838.868,826.321c0,0,0.079,0.182-0.333-2.66c-0.001-0.001-0.07-0.252-0.07-0.252c-0.024-0.058-0.017-0.096-0.017-0.096
		l42.297-11.781c2.86,14.544,1.404,8.725,2.014,13.646L838.868,826.321z"/>
	<path d="M1546.387,595.18c-19.173-58.81-43.276-112.142-78.207-168.402l37.245-23.252c36.828,59.34,62.349,115.619,82.759,178.207
		L1546.387,595.18z"/>
	<path d="M1495.812,611.451c-18.243-55.973-40.962-105.446-72.699-156.539l37.245-23.252
		c33.507,53.963,57.703,106.385,77.251,166.343L1495.812,611.451z"/>
	<path d="M1445.237,627.722c-16.468-50.547-37.285-96.556-67.191-144.675l37.245-23.252c32.082,51.644,54.222,100.712,71.743,154.48
		L1445.237,627.722z"/>
	<path d="M1192.362,709.077c-9.903-30.52-22.91-58.558-39.651-85.358l37.245-23.252c18.348,29.406,32.905,60.379,44.203,95.162
		L1192.362,709.077z"/>
	<path d="M1141.787,725.347c-8.635-26.652-20.073-51.016-34.143-73.494l37.245-23.252c16.068,25.716,28.885,53.064,38.695,83.299
		L1141.787,725.347z"/>
	<path d="M1091.212,741.618c-7.237-22.382-17-43.094-28.635-61.631l37.245-23.252c13.807,22.05,24.882,45.796,33.187,71.435
		L1091.212,741.618z"/>
	<path d="M1040.637,757.889c-5.881-18.251-14.042-35.349-23.127-49.767l37.245-23.252c11.098,17.673,20.625,37.743,27.679,59.572
		L1040.637,757.889z"/>
	<path d="M990.062,774.16c-4.364-13.612-10.746-27.068-17.619-37.904l37.245-23.252c8.77,13.905,16.589,30.38,22.171,47.708
		L990.062,774.16z"/>
	<path d="M888.912,806.702c-2.085-5.772-2.874-7.971-6.602-14.177l37.245-23.252c5.479,8.954,8.027,14.868,11.154,23.981
		L888.912,806.702z"/>
	<path d="M1408.045,431.77c-33.483-48.458-68.82-89.643-113.312-129.274l29.248-32.748c47.547,42.365,85.098,86.274,120.368,137.326
		L1408.045,431.77z"/>
	<path d="M1364.117,461.651c-30.66-44.354-63.261-82.567-104.774-119.531l29.248-32.748c43.829,39.039,78.751,79.715,111.83,127.583
		L1364.117,461.651z"/>
	<path d="M1320.189,491.533c-28.315-40.946-58.28-76.016-96.236-109.788l29.248-32.748c41.169,36.656,73.294,74.449,103.292,117.84
		L1320.189,491.533z"/>
	<path d="M1232.333,551.296c-23.314-33.677-47.89-62.512-79.16-90.301l29.248-32.748c33.855,30.104,60.709,61.494,86.216,98.354
		L1232.333,551.296z"/>
	<path d="M1188.406,581.178c-20.964-30.258-43.314-56.315-70.622-80.558l29.248-32.748c30.695,27.276,54.838,55.624,77.678,88.61
		L1188.406,581.178z"/>
	<path d="M1144.478,611.06c-18.194-26.234-37.786-49.262-62.084-70.815l29.248-32.748c26.69,23.693,48.563,49.175,69.14,78.867
		L1144.478,611.06z"/>
	<path d="M1100.55,640.941c-16.016-23.065-32.962-42.844-53.546-61.072l29.248-32.748c23.568,20.898,42.722,43.347,60.602,69.124
		L1100.55,640.941z"/>
	<path d="M1056.622,670.823c-13.214-18.995-27.44-35.806-45.008-51.329l29.248-32.748c20.017,17.723,36.49,36.959,52.064,59.381
		L1056.622,670.823z"/>
	<path d="M1012.694,700.705c-10.777-15.453-22.331-29.135-36.47-41.586l29.248-32.748c16.855,14.888,30.622,31.094,43.526,49.638
		L1012.694,700.705z"/>
	<path d="M968.766,730.586c-8.279-11.821-17.12-22.367-27.932-31.843l29.248-32.748c13.492,11.874,24.575,24.972,34.988,39.895
		L968.766,730.586z"/>
	<path d="M924.838,760.468c-5.553-7.866-11.882-15.577-19.394-22.099l29.248-32.748c10.248,8.969,18.632,18.999,26.45,30.152
		L924.838,760.468z"/>
	<path d="M880.911,790.35c-0.401-0.508-5.035-7.424-10.856-12.356l29.248-32.748c8.164,7.07,13.251,14.129,17.912,20.408
		L880.911,790.35z"/>
	<path d="M836.983,820.232c0,0-1.694-2.058-1.694-2.058c-0.089-0.049-0.433-0.363-0.498-0.466
		c-0.179-0.158,28.962-32.659,29.121-32.837c4.905,4.119,8.963,10.157,9.374,10.665L836.983,820.232z"/>
	<path d="M1307.649,243.54c-46.217-37.457-95.375-70.794-156.238-99.516l18.875-39.643c63.35,29.915,115.875,65.213,165.308,105.294
		L1307.649,243.54z"/>
	<path d="M1273.835,284.518c-42.903-34.753-88.778-65.895-145.263-92.526l18.875-39.643
		c59.134,27.904,108.187,60.908,154.333,98.303L1273.835,284.518z"/>
	<path d="M1240.021,325.495c-39.294-31.807-81.707-60.769-134.288-85.535l18.875-39.643
		c55.101,25.975,100.727,56.785,143.358,91.313L1240.021,325.495z"/>
	<path d="M1206.207,366.473c-36.303-29.364-75.306-55.962-123.312-78.545l18.875-39.643c50.918,23.977,93.091,52.519,132.383,84.322
		L1206.207,366.473z"/>
	<path d="M1172.393,407.451c-32.655-26.388-68.176-50.813-112.337-71.554l18.875-39.643c46.228,21.742,84.934,47.834,121.407,77.331
		L1172.393,407.451z"/>
	<path d="M1138.579,448.429c-29.618-23.909-61.78-46.009-101.362-64.564l18.875-39.643c42.149,19.792,77.394,43.647,110.432,70.341
		L1138.579,448.429z"/>
	<path d="M1104.765,489.407c-27.945-22.528-57.593-42.236-90.386-57.573l18.875-39.643c37.719,17.674,69.52,39.189,99.457,63.35
		L1104.765,489.407z"/>
	<path d="M1070.95,530.384c-24.379-19.619-50.551-37.125-79.411-50.583l18.875-39.643c31.906,14.914,60.945,34.168,88.482,56.36
		L1070.95,530.384z"/>
	<path d="M1037.136,571.362c-21.108-16.947-43.882-32.188-68.436-43.592l18.875-39.643c28.193,13.138,53.781,30.282,77.506,49.369
		L1037.136,571.362z"/>
	<path d="M1003.322,612.34c-17.665-14.139-36.913-27.112-57.461-36.602l18.875-39.643c23.682,10.99,45.819,25.756,66.531,42.379
		L1003.322,612.34z"/>
	<path d="M969.508,653.318c-16.892-13.457-32.776-23.333-46.485-29.611l18.875-39.643c19.784,9.128,38.391,21.659,55.556,35.388
		L969.508,653.318z"/>
	<path d="M935.694,694.295c-13.297-10.513-25.466-18.081-35.51-22.62l18.875-39.643c12.862,5.882,28.07,15.258,44.581,28.398
		L935.694,694.295z"/>
	<path d="M868.066,776.251c-0.508-0.349-9.125-7.248-13.56-8.639l18.875-39.643c10.633,4.65,22.121,14.039,22.63,14.417
		L868.066,776.251z"/>
	<path d="M1124.263,131.75c-60.367-26.111-120.096-41.914-178.561-51.562l6.887-43.364c62.485,10.308,125.174,26.994,188.968,54.567
		L1124.263,131.75z"/>
	<path d="M1103.338,180.583c-56.256-24.356-111.853-38.992-165.968-47.925l6.887-43.364c57.856,9.548,116.586,25.066,176.375,50.93
		L1103.338,180.583z"/>
	<path d="M1082.412,229.416c-52.014-22.546-103.53-36.056-153.376-44.288l6.887-43.364c53.803,8.882,108.545,23.373,163.783,47.293
		L1082.412,229.416z"/>
	<path d="M1061.486,278.25c-41.722-18.112-88.422-31.999-140.784-40.651l6.887-43.364c49.221,8.129,99.996,21.461,151.191,43.656
		L1061.486,278.25z"/>
	<path d="M998.709,424.75c-29.651-12.949-64.256-23.323-103.007-29.74l6.887-43.364c43.052,7.123,80.924,18.586,113.414,32.746
		L998.709,424.75z"/>
	<path d="M977.784,473.583c-25.332-11.098-55.918-20.385-90.415-26.103l6.887-43.364c38.653,6.401,72.535,16.749,100.821,29.109
		L977.784,473.583z"/>
	<path d="M956.858,522.416c-20.996-9.236-47.58-17.445-77.822-22.466l6.887-43.364c33.766,5.598,63.63,14.689,88.229,25.472
		L956.858,522.416z"/>
	<path d="M915.007,620.083c-13.054-5.824-31.7-11.699-52.638-15.192l6.887-43.364c24.527,4.081,46.63,10.925,63.044,18.198
		L915.007,620.083z"/>
	<path d="M894.081,668.916c-9.061-4.097-23.451-8.773-40.045-11.555l6.887-43.364c20.056,3.349,38.002,8.995,50.452,14.561
		L894.081,668.916z"/>
	<path d="M873.155,717.749c-8.412-3.904-19.112-6.326-27.453-7.918l6.887-43.364c15.3,2.568,29.046,6.926,37.86,10.924
		L873.155,717.749z"/>
	<path d="M852.23,766.583c-5.444-2.704-14.353-4.169-14.861-4.281l6.887-43.364c8.381,1.625,17.535,3.671,25.268,7.287
		L852.23,766.583z"/>
	<path d="M831.208,815.379c-0.021-0.003-0.407-0.166-0.407-0.166c-0.065,0.002-0.124-0.021-0.176-0.076
		c-0.073,0.009-0.139-0.003-0.196-0.053c-0.064-0.027-0.145,0.001-0.202-0.054c-0.27-0.075-0.558-0.119-0.785-0.185
		c-0.082,0.005-0.131-0.02-0.191-0.059c-0.071,0.014-0.152,0.021-0.215-0.013l6.887-43.364c0.508,0.118,8.252,1.403,12.675,3.65
		C848.524,775.23,831.393,815.354,831.208,815.379z"/>
	<path d="M916.259,76.11c-66.908-7.62-120.86-6.836-184.429,0.607l-5.475-43.565c65.111-7.635,122.367-8.922,195.08-0.643
		L916.259,76.11z"/>
	<path d="M909.995,128.867c-63.509-7.235-113.684-6.198-171.54,0.563l-5.475-43.565c62.951-7.368,116.245-8.11,182.192-0.599
		L909.995,128.867z"/>
	<path d="M903.731,181.624c-56.455-6.434-102.706-6.003-158.651,0.519l-5.475-43.565c58.384-6.819,107.877-7.553,169.303-0.555
		L903.731,181.624z"/>
	<path d="M897.468,234.382c-53.958-6.152-96.396-5.263-145.763,0.474l-5.475-43.565c54.871-6.393,100.454-6.889,156.414-0.511
		L897.468,234.382z"/>
	<path d="M891.204,287.139c-48.802-5.567-87.486-4.827-132.874,0.43l-5.475-43.565c49.764-5.781,91.566-6.392,143.526-0.467
		L891.204,287.139z"/>
	<path d="M884.94,339.896c-44.44-5.073-79.341-4.302-119.985,0.386l-5.475-43.565c45.09-5.219,83.101-5.846,130.637-0.423
		L884.94,339.896z"/>
	<path d="M872.412,445.411c-35.635-4.075-63.112-3.246-94.208,0.298l-5.475-43.565c34.778-3.986,65.24-4.861,104.86-0.335
		L872.412,445.411z"/>
	<path d="M866.148,498.168c-31.437-3.6-55.03-2.715-81.319,0.254l-5.475-43.565c30.165-3.433,56.726-4.322,91.971-0.29
		L866.148,498.168z"/>
	<path d="M853.62,603.683c-21.853-2.515-37.85-1.771-55.542,0.166l-5.475-43.565c18.735-2.084,38.196-3.416,66.194-0.202
		L853.62,603.683z"/>
	<path d="M841.092,709.198c-14.661-1.708-24.462-0.452-29.764,0.078l-5.475-43.565c11.961-1.26,23.281-2.096,40.416-0.114
		L841.092,709.198z"/>
	<path d="M834.828,761.955c-13.692-1.024-13.135-0.115-16.876,0.033l-5.475-43.565c5.038-0.378,10.043-1.706,27.528-0.07
		L834.828,761.955z"/>
	<path d="M828.565,814.712c0,0-0.051,0.006-0.137-0.019c-0.076-0.069-0.232,0.027-0.389-0.044c-0.792,0.008-1.01-0.138-3.166,0.018
		c-0.106,0.05-0.224,0.056-0.295,0.035l-5.475-43.565c3.172-0.081,1.92-0.881,14.639-0.026L828.565,814.712z"/>
	<path d="M702.408,81.029c-59.912,10.083-117.238,26.325-178.204,52.795l-17.572-40.238c64.242-27.879,124.757-45.12,188.591-55.873
		L702.408,81.029z"/>
	<path d="M711.102,133.441c-55.722,9.365-109.192,24.548-165.636,49.071l-17.572-40.238
		c60.136-26.113,116.795-42.183,176.023-52.149L711.102,133.441z"/>
	<path d="M719.796,185.853c-52.026,8.73-101.648,22.99-153.068,45.347l-17.572-40.238c54.976-23.888,107.784-39.071,163.455-48.425
		L719.796,185.853z"/>
	<path d="M728.49,238.264c-48.266,8.084-94.28,21.509-140.5,41.624l-17.572-40.238c50.567-21.99,99.524-36.085,150.887-44.701
		L728.49,238.264z"/>
	<path d="M745.878,343.088c-40.099,6.683-78.37,18.037-115.365,34.176l-17.572-40.238c39.305-17.127,80.668-29.723,125.751-37.253
		L745.878,343.088z"/>
	<path d="M754.572,395.499c-34.762,5.773-69.267,15.8-102.797,30.452l-17.572-40.238c36.208-15.8,73.811-26.971,113.183-33.529
		L754.572,395.499z"/>
	<path d="M763.266,447.911c-31.007,5.127-61.609,14.196-90.229,26.728l-17.572-40.238c32.032-14.002,65.798-24.027,100.615-29.805
		L763.266,447.911z"/>
	<path d="M771.96,500.323c-26.427,4.344-53.185,12.257-77.661,23.004l-17.572-40.238c27.021-11.837,56.891-20.934,88.047-26.082
		L771.96,500.323z"/>
	<path d="M780.654,552.734c-21.886,3.569-44.769,10.322-65.093,19.28l-17.572-40.238c23.166-10.178,49.21-18.044,75.479-22.358
		L780.654,552.734z"/>
	<path d="M789.348,605.146c-17.442,2.81-36.439,8.425-52.525,15.556l-17.572-40.238c20.189-8.906,42.466-15.305,62.911-18.634
		L789.348,605.146z"/>
	<path d="M815.43,762.381c-6.269,1.144-9.667,2.217-14.821,4.384l-17.572-40.238c8.259-3.541,15.452-5.761,25.208-7.462
		L815.43,762.381z"/>
	<path d="M824.124,814.793c0,0-0.041,0.012-0.119-0.003c-0.07,0.02-0.159,0.076-0.286,0.051c-0.101,0.033-1.877,0.511-1.848,0.613
		l-17.572-40.238c4.407-1.839,6.993-2.688,12.64-3.738L824.124,814.793z"/>
	<path d="M497.136,146.265c-60.358,29.832-112.341,63.887-155.514,100.598l-28.176-33.675
		c44.869-38.156,99.762-74.429,164.542-106.435L497.136,146.265z"/>
	<path d="M520.305,194.075c-55.357,27.373-103.772,58.83-144.59,93.534l-28.176-33.675c41.903-35.63,93.083-69.45,153.618-99.372
		L520.305,194.075z"/>
	<path d="M543.473,241.885c-45.968,22.743-89.958,49.697-133.666,86.47l-28.176-33.675c43.199-36.728,91.523-67.002,142.694-92.308
		L543.473,241.885z"/>
	<path d="M589.811,337.505c-38.324,18.988-75.261,41.538-111.818,72.343l-28.176-33.675c39.669-33.405,79.914-57.914,120.846-78.181
		L589.811,337.505z"/>
	<path d="M682.486,528.744c-24.285,12.1-47.153,26.305-68.121,44.088l-28.176-33.675c23.491-19.886,49.131-35.989,77.149-49.926
		L682.486,528.744z"/>
	<path d="M728.823,624.364c-16.592,8.323-31.986,17.752-46.273,29.961l-28.176-33.675c17.199-14.644,35.525-25.912,55.301-35.799
		L728.823,624.364z"/>
	<path d="M775.16,719.984c-0.508,0.273-13.731,6.502-24.425,15.834l-28.176-33.674c10.188-8.787,21.471-15.612,33.453-21.672
		L775.16,719.984z"/>
	<path d="M821.498,815.603c-0.061,0.079-0.141,0.082-0.221,0.103c-0.065,0.077-2.483,1.449-2.356,1.604l-28.176-33.675
		c4.418-4.045,11.096-7.235,11.605-7.544L821.498,815.603z"/>
	<path d="M319.254,266.314c-48.237,43.61-91.693,95.238-120.89,139.867l-36.472-24.447
		c31.567-48.206,77.532-102.427,127.891-147.968L319.254,266.314z"/>
	<path d="M354.913,305.697c-32.475,28.321-80.737,81.577-112.418,130.065l-36.472-24.447
		c33.096-50.599,83.714-106.963,119.419-138.166L354.913,305.697z"/>
	<path d="M426.231,384.462c-25.471,22.073-66.325,66.474-95.473,110.46l-36.472-24.447c34.555-52.091,79.04-98.195,102.475-118.561
		L426.231,384.462z"/>
	<path d="M461.89,423.845c-22.681,19.574-60.463,60.556-87.001,100.658l-36.472-24.447c28.051-42.34,68.246-86.453,94.003-108.759
		L461.89,423.845z"/>
	<path d="M568.868,541.993c-2.04,1.728-35.76,31.966-61.585,71.251l-36.472-24.447c22.564-34.243,54.463-67.313,68.587-79.352
		L568.868,541.993z"/>
	<path d="M604.527,581.376c-1.427,1.195-31.054,27.773-53.113,61.449l-36.472-24.447c21.007-31.974,50.734-61.62,60.115-69.55
		L604.527,581.376z"/>
	<path d="M640.187,620.758c-1.323,1.093-26.531,23.862-44.641,51.646l-36.472-24.447c19.466-29.742,47.28-56.1,51.642-59.748
		L640.187,620.758z"/>
	<path d="M675.846,660.141c-0.772,0.624-21.61,19.349-36.169,41.844l-36.472-24.447c16.307-25.048,40.236-47.53,43.17-49.945
		L675.846,660.141z"/>
	<path d="M711.505,699.523c-0.803,0.628-17.169,15.583-27.697,32.042l-36.472-24.447c12.966-20.069,32.808-38.622,34.698-40.143
		L711.505,699.523z"/>
	<path d="M747.164,738.906c-0.508,0.372-12.476,11.444-19.224,22.24l-36.472-24.447c9.333-14.637,24.934-29.339,26.226-30.341
		L747.164,738.906z"/>
	<path d="M781.705,779.331c-2.031,1.545-8.203,8.962-9.634,11.395l-36.472-24.447c5.81-9.359,17.043-20.027,17.754-20.538
		C785.4,781.134,783.212,778.047,781.705,779.331z"/>
	<path d="M816.505,819.897c-0.013,0.01-0.316,0.402-0.303,0.41L779.73,795.86c1.274-2.215,8.984-11.07,9.282-10.736
		C823.594,823.317,818.915,816.418,816.505,819.897z"/>
	<path d="M227.574,459.005c-31.329,50.577-53.721,101.533-71.634,157.051l-41.889-13.158
		c18.826-58.373,42.513-112.601,76.12-166.889L227.574,459.005z"/>
	<path d="M272.833,486.83c-29.158,47.031-49.794,94.315-66.207,145.147l-41.889-13.158c17.435-54.03,39.418-104.502,70.692-154.985
		L272.833,486.83z"/>
	<path d="M318.092,514.654c-26.575,42.82-45.584,86.222-60.779,133.243l-41.889-13.158c16.135-49.964,36.456-96.62,65.265-143.081
		L318.092,514.654z"/>
	<path d="M363.351,542.479c-24.152,38.87-41.485,78.47-55.352,121.339l-41.889-13.158c14.825-45.869,33.481-88.716,59.837-131.177
		L363.351,542.479z"/>
	<path d="M453.868,598.129c-19.505,31.285-33.428,63.4-44.497,97.531l-41.889-13.158c12.197-37.653,27.506-72.865,48.982-107.369
		L453.868,598.129z"/>
	<path d="M499.127,625.953c-16.694,26.713-29.335,55.669-39.069,85.627l-41.889-13.158c10.92-33.659,25.001-65.715,43.555-95.465
		L499.127,625.953z"/>
	<path d="M544.386,653.778c-12.321,19.658-24.028,44.209-33.642,73.723l-41.889-13.158c9.454-29.085,21.781-57.416,38.127-83.561
		L544.386,653.778z"/>
	<path d="M680.162,737.253c-5.922,9.255-12.154,22.295-17.359,38.012l-41.889-13.158c6.286-19.11,14.004-35.491,21.845-47.85
		L680.162,737.253z"/>
	<path d="M725.421,765.077c-6.82,10.457-11.464,24.81-11.932,26.108l-41.889-13.158c4.992-15.041,10.906-27.352,16.417-35.946
		L725.421,765.077z"/>
	<path d="M199.453,656.569c-14.197,52.85-21.673,105.539-22.486,157.589l-43.899-0.847c0.916-57.531,9.346-113.609,24.007-168.23
		L199.453,656.569z"/>
	<path d="M250.73,670.47c-13.077,48.626-19.925,97.223-20.645,144.713l-43.899-0.847c0.795-51.158,8.133-103.124,22.167-155.354
		L250.73,670.47z"/>
	<path d="M302.007,684.371c-11.948,44.37-18.186,89.652-18.804,131.837l-43.899-0.847c0.691-45.804,7.206-93.702,20.326-142.478
		L302.007,684.371z"/>
	<path d="M353.284,698.271c-10.926,40.512-16.447,82.082-16.963,118.961l-43.899-0.847c0.59-40.603,6.524-85.196,18.485-129.602
		L353.284,698.271z"/>
	<path d="M404.562,712.172c-9.825,36.357-14.697,73.807-15.122,106.085l-43.899-0.847c0.495-35.621,5.787-76.482,16.644-116.726
		L404.562,712.172z"/>
	<path d="M455.839,726.073c-8.732,32.234-12.942,65.536-13.282,93.209l-43.899-0.847c0.409-31.341,5.132-68.075,14.803-103.85
		L455.839,726.073z"/>
	<path d="M558.393,753.874c-6.269,22.961-9.422,47.953-9.6,67.457l-43.899-0.847c0.241-22.598,3.761-51.038,11.121-78.098
		L558.393,753.874z"/>
	<path d="M712.224,795.576c-2.93,11.24-4.113,21.952-4.077,28.829l-43.899-0.847c0.012-10.415,1.921-26.271,5.599-39.471
		L712.224,795.576z"/>
	<path d="M763.502,809.476c-1.767,7.105-2.311,12.889-2.236,15.953l-43.899-0.847c-0.064-8.093,1.641-18.433,3.758-26.595
		L763.502,809.476z"/>
	<path d="M814.779,823.377c0,0-0.004,0.035-0.045,0.089c-0.032,0.023,0.007,0.074-0.009,0.115c-0.002,0.045-0.033,0.089-0.06,0.139
		c-0.001,0.014-0.179,1.158-0.175,1.17c0.002,0.074-0.015,0.145-0.05,0.215c-0.012,0.19,0.07,0.094-0.034,0.376
		c0.024,0.102-0.023,0.974-0.023,0.974l-43.899-0.847c-0.077-2.489,0.358-7.339,1.917-13.719L814.779,823.377z"/>
	<path d="M70.731,841.571c1.033,63.321,10.308,124.199,26.168,183.341L54.521,1036.4c-16.749-62.493-26.576-126.74-27.689-193.982
		L70.731,841.571z"/>
	<path d="M176.967,839.522c0.812,51.998,8.274,104.685,22.486,157.589l-42.378,11.488c-14.662-54.622-23.091-110.698-24.007-168.23
		L176.967,839.522z"/>
	<path d="M230.085,838.497c0.72,47.462,7.561,96.057,20.645,144.713l-42.378,11.488c-14.026-52.204-21.371-104.17-22.167-155.354
		L230.085,838.497z"/>
	<path d="M389.439,835.423c0.424,32.133,5.26,69.588,15.122,106.085l-42.378,11.488c-10.828-40.134-16.147-80.993-16.644-116.726
		L389.439,835.423z"/>
	<path d="M442.557,834.398c0.338,27.546,4.517,60.854,13.282,93.209l-42.378,11.488c-9.628-35.614-14.392-72.341-14.803-103.85
		L442.557,834.398z"/>
	<path d="M548.793,832.349c0.176,19.37,3.295,44.364,9.6,67.457l-42.378,11.488c-7.32-26.914-10.878-55.349-11.121-78.098
		L548.793,832.349z"/>
	<path d="M601.911,831.324c0.095,14.992,2.603,35.823,7.759,54.581l-42.378,11.488c-6.067-22.198-9.118-46.472-9.28-65.222
		L601.911,831.324z"/>
	<path d="M655.029,830.3c0.024,11.066,2.015,27.657,5.918,41.705l-42.378,11.488c-4.948-17.972-7.355-38.06-7.44-52.347
		L655.029,830.3z"/>
	<path d="M708.147,829.275c-0.036,6.922,1.144,17.577,4.077,28.829l-42.378,11.488c-3.655-13.116-5.587-28.973-5.599-39.471
		L708.147,829.275z"/>
	<path d="M761.265,828.25c-0.074,3.066,0.47,8.851,2.236,15.953l-42.378,11.488c-2.147-8.278-3.821-18.584-3.758-26.595
		L761.265,828.25z"/>
	<path d="M814.383,827.225c0,0,0.046,0.872,0.023,0.974c0.103,0.281,0.022,0.186,0.034,0.376c0.035,0.07,0.052,0.141,0.05,0.215
		c-0.004,0.012,0.174,1.156,0.175,1.17c0.027,0.05,0.058,0.094,0.06,0.139c0.016,0.041-0.023,0.092,0.009,0.115
		c0.041,0.053,0.045,0.089,0.045,0.089l-42.378,11.488c-1.559-6.378-1.994-11.228-1.917-13.719L814.383,827.225z"/>
	<path d="M155.94,1037.625c17.826,55.245,40.171,106.253,71.634,157.051l-37.404,22.996
		c-33.565-54.221-57.265-108.424-76.12-166.888L155.94,1037.625z"/>
	<path d="M206.626,1021.704c16.403,50.801,37.033,98.09,66.207,145.147l-37.404,22.996c-31.214-50.38-53.221-100.842-70.692-154.985
		L206.626,1021.704z"/>
	<path d="M257.313,1005.783c15.143,46.86,34.13,90.301,60.779,133.243l-37.404,22.996c-28.745-46.354-49.09-92.992-65.265-143.081
		L257.313,1005.783z"/>
	<path d="M358.685,973.941c12.462,38.482,28.076,74.324,49.924,109.435l-37.404,22.996c-23.93-38.502-40.911-77.55-54.41-119.273
		L358.685,973.941z"/>
	<path d="M409.371,958.02c11.053,34.083,24.957,66.184,44.497,97.531l-37.404,22.996c-21.402-34.381-36.743-69.585-48.982-107.369
		L409.371,958.02z"/>
	<path d="M460.058,942.099c9.715,29.898,22.343,58.859,39.069,85.627l-37.404,22.996c-18.556-29.753-32.637-61.812-43.555-95.465
		L460.058,942.099z"/>
	<path d="M561.43,910.257c8.064,24.671,17.952,45.514,28.214,61.819l-37.404,22.996c-11.924-19.013-23.321-42.881-32.7-71.657
		L561.43,910.257z"/>
	<path d="M662.803,878.416c5.226,15.779,11.467,28.804,17.359,38.012l-37.404,22.996c-7.739-12.199-15.487-28.521-21.845-47.85
		L662.803,878.416z"/>
	<path d="M713.489,862.495c0.183,0.508,4.765,15.115,11.932,26.108l-37.404,22.996c-5.54-8.638-11.445-20.966-16.417-35.946
		L713.489,862.495z"/>
	<path d="M764.175,846.574c0.205,0.508,2.853,8.867,6.504,14.204l-37.404,22.996c-5.402-8.245-8.604-17.504-10.99-24.042
		L764.175,846.574z"/>
	<path d="M814.861,830.653c0.071,0.066,0.045,0.129,0.057,0.199c0.049,0.048,0.331,0.813,0.365,0.888
		c0.066,0.057,0.064,0.144,0.096,0.217c0.063,0.059,0.094,0.132,0.098,0.217c0.068,0.055,0.106,0.122,0.12,0.198
		c0,0,0.124,0.156,0.141,0.276c0.266,0.509,3.225-1.556-37.204,23.3c-3.049-4.381-5.348-11.63-5.562-12.138L814.861,830.653z"/>
	<path d="M198.364,1247.499c29.765,45.497,73.382,96.911,120.89,139.867l-29.47,32.548
		c-50.774-45.907-96.685-100.311-127.891-147.968L198.364,1247.499z"/>
	<path d="M242.495,1217.918c30.07,46.024,77.899,99.961,112.418,130.065l-29.47,32.548
		c-35.174-30.741-85.877-86.885-119.419-138.166L242.495,1217.918z"/>
	<path d="M286.626,1188.338c32.031,48.277,75.24,95.303,103.946,120.262l-29.47,32.548
		c-31.527-27.479-79.433-80.117-110.947-128.364L286.626,1188.338z"/>
	<path d="M330.758,1158.757c28.304,42.714,68.989,87.508,95.473,110.46l-29.47,32.548c-26.938-23.41-69.911-69.47-102.475-118.561
		L330.758,1158.757z"/>
	<path d="M374.889,1129.177c25.822,39.023,63.476,80.355,87.001,100.658l-29.47,32.548c-24.886-21.551-65.231-65.333-94.003-108.759
		L374.889,1129.177z"/>
	<path d="M507.283,1040.436c21.611,32.874,51.945,63.089,61.585,71.251l-29.47,32.548c-1.804-1.537-39.419-35.091-68.587-79.352
		L507.283,1040.436z"/>
	<path d="M551.414,1010.856c19.256,29.393,46.919,56.259,53.113,61.449l-29.47,32.548c-2.085-1.763-35.117-31.501-60.115-69.55
		L551.414,1010.856z"/>
	<path d="M639.677,951.695c11.529,17.818,31.602,38.151,36.169,41.844l-29.47,32.548c-0.938-0.773-25.414-22.676-43.17-49.945
		L639.677,951.695z"/>
	<path d="M683.808,922.115c9.982,15.599,26.307,30.956,27.697,32.042l-29.47,32.548c-0.719-0.579-20.792-18.622-34.698-40.143
		L683.808,922.115z"/>
	<path d="M772.071,862.954c3.014,5.127,10.752,12.437,10.752,12.437l-29.47,32.548c-0.508-0.365-11.699-10.791-17.754-20.538
		L772.071,862.954z"/>
	<path d="M816.202,833.373c-0.013,0.008,0.29,0.4,0.303,0.41c0.826,1.192,1.977,2.226,1.977,2.226
		c-32.465,35.855-29.279,32.757-29.912,32.119c-2.673-2.588-7.236-7.518-8.841-10.307L816.202,833.373z"/>
	<path d="M341.622,1406.817c42.391,36.046,94.203,70.294,155.514,100.598l-19.148,39.512
		c-64.222-31.732-119.212-67.887-164.542-106.435L341.622,1406.817z"/>
	<path d="M375.715,1366.071c43.822,37.258,92.822,67.937,144.59,93.534l-19.148,39.512
		c-59.792-29.557-111.089-63.209-153.618-99.372L375.715,1366.071z"/>
	<path d="M409.808,1325.325c43.733,36.799,88.119,63.935,133.666,86.47l-19.148,39.512
		c-55.363-27.379-102.979-58.542-142.694-92.308L409.808,1325.325z"/>
	<path d="M443.9,1284.578c40.139,33.797,80.956,58.72,122.742,79.407l-19.148,39.512c-45.465-22.498-88.821-49.107-131.77-85.245
		L443.9,1284.578z"/>
	<path d="M477.993,1243.832c36.686,30.911,73.967,53.59,111.818,72.343l-19.148,39.512c-41.312-20.455-81.245-44.833-120.846-78.181
		L477.993,1243.832z"/>
	<path d="M512.086,1203.086c33.167,27.978,67.015,48.477,100.894,65.279l-19.148,39.512
		c-37.451-18.559-73.833-40.697-109.922-71.117L512.086,1203.086z"/>
	<path d="M546.179,1162.34c27.321,23.079,56.988,41.84,89.97,58.216L617,1260.068c-33.226-16.481-66.245-36.417-98.998-64.053
		L546.179,1162.34z"/>
	<path d="M614.364,1080.847c21.005,17.812,43.884,32.013,68.121,44.088l-19.148,39.512c-28.201-14.026-53.808-30.165-77.149-49.926
		L614.364,1080.847z"/>
	<path d="M648.457,1040.101c17.777,15.124,36.683,26.776,57.197,37.025l-19.148,39.512c-23.768-11.848-45.977-25.681-66.225-42.862
		L648.457,1040.101z"/>
	<path d="M784.828,877.116c5.342,4.824,12.993,8.471,13.501,8.77l-19.148,39.512c-0.508-0.276-12.76-6.056-22.529-14.608
		L784.828,877.116z"/>
	<path d="M818.921,836.37c-0.143,0.174,2.268,1.5,2.356,1.604c0.08,0.021,0.16,0.024,0.221,0.103l-19.148,39.512
		c-0.508-0.308-7.202-3.506-11.605-7.544L818.921,836.37z"/>
	<path d="M524.204,1519.855c60.912,26.447,118.236,42.703,178.204,52.795l-7.185,43.316
		c-63.608-10.717-124.105-27.888-188.591-55.873L524.204,1519.855z"/>
	<path d="M587.99,1373.792c44.576,19.399,90.456,33.242,140.5,41.623l-7.185,43.315c-51.356-8.614-100.318-22.71-150.887-44.701
		L587.99,1373.792z"/>
	<path d="M630.514,1276.417c36.954,16.122,75.225,27.486,115.365,34.176l-7.185,43.315c-42.569-7.11-84.124-19.114-125.751-37.253
		L630.514,1276.417z"/>
	<path d="M651.776,1227.729c32.012,13.989,66.387,24.404,102.797,30.452l-7.185,43.315c-39.362-6.556-76.972-17.727-113.183-33.529
		L651.776,1227.729z"/>
	<path d="M673.038,1179.041c28.495,12.478,59.087,21.578,90.229,26.728l-7.185,43.315c-34.779-5.773-68.548-15.788-100.615-29.806
		L673.038,1179.041z"/>
	<path d="M715.561,1081.666c20.291,8.943,43.172,15.705,65.093,19.28l-7.185,43.315c-25.025-4.109-51.156-11.671-75.479-22.358
		L715.561,1081.666z"/>
	<path d="M758.085,984.29c11.309,5.059,26.385,9.689,39.957,11.832l-7.185,43.315c-16.973-2.727-35.279-8.223-50.344-14.91
		L758.085,984.29z"/>
	<path d="M779.347,935.602c8.92,3.833,16.904,6.29,27.389,8.108l-7.185,43.315c-12.787-2.01-27.182-6.436-37.776-11.186
		L779.347,935.602z"/>
	<path d="M800.609,886.914c5.083,2.138,8.496,3.231,14.821,4.384l-7.185,43.315c-9.798-1.709-16.979-3.934-25.208-7.462
		L800.609,886.914z"/>
	<path d="M821.871,838.227c-0.03,0.102,1.747,0.579,1.848,0.613c0.126-0.025,0.216,0.031,0.286,0.051
		c0.078-0.015,0.119-0.003,0.119-0.003l-7.185,43.315c-5.668-1.054-8.271-1.916-12.64-3.738L821.871,838.227z"/>
	<path d="M731.831,1576.963c63.511,7.437,117.417,8.237,184.429,0.607l5.177,43.601c-73.249,8.339-130.508,6.929-195.08-0.643
		L731.831,1576.963z"/>
	<path d="M738.455,1524.25c59.291,6.926,109.417,7.639,171.54,0.563l5.177,43.601c-66.186,7.537-119.473,6.742-182.192-0.599
		L738.455,1524.25z"/>
	<path d="M745.08,1471.537c55.698,6.493,101.974,6.98,158.651,0.519l5.177,43.601c-61.061,6.959-110.593,6.303-169.303-0.555
		L745.08,1471.537z"/>
	<path d="M751.705,1418.824c50.626,5.883,93.055,6.483,145.763,0.474l5.177,43.601c-56.94,6.489-102.496,5.77-156.414-0.511
		L751.705,1418.824z"/>
	<path d="M758.33,1366.11c45.355,5.253,84.037,6.002,132.874,0.43l5.177,43.601c-51.846,5.911-93.65,5.329-143.526-0.467
		L758.33,1366.11z"/>
	<path d="M764.955,1313.397c40.382,4.658,75.198,5.498,119.985,0.386l5.177,43.601c-47.348,5.401-85.38,4.815-130.637-0.423
		L764.955,1313.397z"/>
	<path d="M771.579,1260.684c35.606,4.085,66.741,4.953,107.096,0.342l5.177,43.601c-43.653,4.985-77.912,4.213-117.748-0.379
		L771.579,1260.684z"/>
	<path d="M778.204,1207.971c30.816,3.512,58.055,4.432,94.208,0.298l5.177,43.601c-38.951,4.45-69.334,3.737-104.86-0.334
		L778.204,1207.971z"/>
	<path d="M784.829,1155.257c25.991,2.936,49.477,3.901,81.319,0.254l5.177,43.601c-34.883,3.99-61.656,3.16-91.971-0.29
		L784.829,1155.257z"/>
	<path d="M798.078,1049.831c11.616,1.272,29.234,3.192,55.542,0.166l5.177,43.601c-25.714,2.951-44.692,2.189-66.194-0.202
		L798.078,1049.831z"/>
	<path d="M811.328,944.405c4.264,0.426,14.7,1.833,29.764,0.078l5.177,43.601c-16.393,1.896-27.829,1.213-40.416-0.114
		L811.328,944.405z"/>
	<path d="M817.953,891.691c3.792,0.15,3.143,1.062,16.876,0.033l5.177,43.601c-17.185,1.61-22.244,0.326-27.528-0.07
		L817.953,891.691z"/>
	<path d="M824.577,838.978c0.071-0.021,0.189-0.016,0.295,0.035c2.187,0.158,2.374,0.009,3.166,0.018
		c0.158-0.071,0.313,0.025,0.389-0.044c0.086-0.025,0.137-0.019,0.137-0.019l5.177,43.601c-12.196,0.818-12.983,0.016-14.639-0.026
		L824.577,838.978z"/>
	<path d="M937.369,1521.021c54.231-8.953,109.652-23.542,165.968-47.925l17.294,40.358c-59.876,25.897-118.663,41.406-176.375,50.93
		L937.369,1521.021z"/>
	<path d="M929.036,1468.551c50.078-8.27,101.549-21.818,153.376-44.288l17.294,40.358c-55.198,23.905-110.229,38.453-163.783,47.294
		L929.036,1468.551z"/>
	<path d="M920.703,1416.081c52.346-8.647,99.045-22.534,140.784-40.651l17.294,40.358c-51.225,22.215-102.097,35.548-151.191,43.656
		L920.703,1416.081z"/>
	<path d="M912.369,1363.611c48.036-7.942,90.701-20.71,128.191-37.014l17.294,40.358c-45.066,19.568-91.719,32.274-138.598,40.02
		L912.369,1363.611z"/>
	<path d="M904.036,1311.14c43.485-7.195,82.065-18.772,115.599-33.377l17.294,40.358c-36.907,16.052-78.859,28.587-126.006,36.382
		L904.036,1311.14z"/>
	<path d="M895.703,1258.67c38.937-6.448,73.489-16.852,103.007-29.74l17.294,40.358c-32.649,14.233-70.583,25.66-113.414,32.745
		L895.703,1258.67z"/>
	<path d="M887.369,1206.2c34.543-5.727,65.122-15.021,90.415-26.103l17.294,40.358c-28.222,12.33-62.089,22.695-100.821,29.109
		L887.369,1206.2z"/>
	<path d="M879.036,1153.73c30.549-5.071,57.322-13.447,77.822-22.466l17.294,40.358c-24.601,10.783-54.461,19.874-88.229,25.472
		L879.036,1153.73z"/>
	<path d="M870.703,1101.259c25.47-4.237,48.188-11.292,65.23-18.829l17.294,40.358c-19.829,8.733-45.753,16.873-75.637,21.835
		L870.703,1101.259z"/>
	<path d="M854.036,996.319c16.048-2.69,30.548-7.261,40.045-11.555l17.294,40.358c-12.271,5.484-30.16,11.173-50.452,14.561
		L854.036,996.319z"/>
	<path d="M829.036,838.908c0.064-0.035,0.147-0.026,0.215-0.013c0.06-0.039,0.109-0.064,0.191-0.059
		c0.227-0.066,0.515-0.11,0.785-0.185c0.057-0.055,0.138-0.028,0.202-0.054c0.056-0.05,0.123-0.062,0.196-0.053
		c0.052-0.055,0.111-0.078,0.176-0.076c0,0,0.397-0.165,0.407-0.166c0.186,0.025,17.317,40.149,17.39,40.321
		c-4.416,2.246-12.168,3.532-12.675,3.65L829.036,838.908z"/>
	<path d="M1151.411,1509.656c60.397-28.497,110.124-62.143,156.238-99.516l27.946,33.866
		c-49.063,39.781-101.196,75.016-165.308,105.294L1151.411,1509.656z"/>
	<path d="M1128.572,1461.688c55.956-26.379,102.204-57.648,145.263-92.526l27.946,33.866c-45.424,36.81-94.022,69.85-154.333,98.303
		L1128.572,1461.688z"/>
	<path d="M1105.733,1413.72c51.587-24.298,94.337-53.196,134.288-85.535l27.945,33.866c-42.065,34.068-87.209,64.847-143.358,91.313
		L1105.733,1413.72z"/>
	<path d="M1082.895,1365.751c47.129-22.166,86.466-48.741,123.312-78.545l27.945,33.866c-38.983,31.553-80.79,60.029-132.383,84.322
		L1082.895,1365.751z"/>
	<path d="M1060.056,1317.783c42.839-20.12,78.685-44.36,112.337-71.554l27.945,33.866c-35.634,28.818-74.033,55.049-121.407,77.332
		L1060.056,1317.783z"/>
	<path d="M1037.217,1269.815c38.669-18.124,71.101-40.136,101.362-64.564l27.945,33.866
		c-32.345,26.135-67.262,50.072-110.432,70.341L1037.217,1269.815z"/>
	<path d="M1014.378,1221.846c32.73-15.307,62.382-34.996,90.386-57.573l27.946,33.866c-28.1,22.678-59.65,44.702-99.457,63.35
		L1014.378,1221.846z"/>
	<path d="M991.539,1173.878c28.85-13.454,55.017-30.951,79.411-50.583l27.946,33.866c-27.526,22.183-56.573,41.447-88.482,56.36
		L991.539,1173.878z"/>
	<path d="M945.862,1077.942c20.645-9.536,39.899-22.546,57.461-36.602l27.946,33.866c-23.978,19.243-46.476,33.073-66.531,42.379
		L945.862,1077.942z"/>
	<path d="M900.184,982.005c9.884-4.466,22.044-11.974,35.51-22.62l27.945,33.866c-16.278,12.955-31.491,22.409-44.581,28.398
		L900.184,982.005z"/>
	<path d="M854.506,886.068c3.937-1.236,13.052-8.291,13.56-8.639l27.946,33.866c-0.508,0.376-12.023,9.782-22.63,14.417
		L854.506,886.068z"/>
	<path d="M832.439,837.712c0.058-0.073,0.133-0.12,0.227-0.139c0.073-0.059,0.14-0.133,0.239-0.154
		c2.014-1.274-2.076-5.115,29.292,32.898c-0.508,0.338-8.155,6.417-11.655,7.426C831.321,837.371,831.036,838.008,832.439,837.712z"
		/>
	<path d="M1330.123,1390.809c48.135-42.901,86.129-87.307,121.85-139.017l36.304,24.696
		c-37.918,54.904-78.126,101.805-128.906,147.069L1330.123,1390.809z"/>
	<path d="M1294.733,1351.184c44.412-39.56,79.812-80.792,113.312-129.274l36.304,24.696
		c-35.397,51.236-72.939,95.073-120.368,137.326L1294.733,1351.184z"/>
	<path d="M1259.343,1311.559c41.411-36.873,74.061-75.1,104.774-119.531l36.304,24.696c-33.036,47.807-67.899,88.454-111.83,127.583
		L1259.343,1311.559z"/>
	<path d="M1223.953,1271.935c38.041-33.852,68.03-68.999,96.236-109.788l36.304,24.696c-29.921,43.28-61.966,81.041-103.292,117.84
		L1223.953,1271.935z"/>
	<path d="M1188.563,1232.31c34.344-30.539,61.697-62.464,87.698-100.045l36.304,24.696c-27.643,39.97-57.042,74.532-94.754,108.097
		L1188.563,1232.31z"/>
	<path d="M1153.174,1192.685c31.269-27.79,55.881-56.677,79.16-90.301l36.304,24.696c-25.442,36.766-52.231,68.133-86.216,98.354
		L1153.174,1192.685z"/>
	<path d="M1117.784,1153.06c27.367-24.297,49.702-50.366,70.622-80.558l36.304,24.696c-22.834,32.978-46.928,61.286-77.678,88.61
		L1117.784,1153.06z"/>
	<path d="M1047.004,1073.81c21.023-18.616,37.928-38.582,53.546-61.072l36.304,24.696c-17.952,25.882-37.128,48.312-60.602,69.124
		L1047.004,1073.81z"/>
	<path d="M976.224,994.561c14.193-12.501,25.737-26.196,36.47-41.586l36.304,24.696c-12.897,18.535-26.666,34.745-43.526,49.638
		L976.224,994.561z"/>
	<path d="M905.444,915.311c7.487-6.502,13.833-14.221,19.394-22.099l36.304,24.696c-7.734,11.034-16.131,21.124-26.45,30.152
		L905.444,915.311z"/>
	<path d="M870.055,875.686c5.809-4.919,10.455-11.849,10.856-12.356l36.304,24.696c-4.65,6.265-9.741,13.331-17.912,20.408
		L870.055,875.686z"/>
	<path d="M1468.18,1226.901c34.932-56.262,59.033-109.588,78.207-168.402l41.797,13.447c-20.411,62.59-45.933,118.87-82.759,178.207
		L1468.18,1226.901z"/>
	<path d="M1423.113,1198.767c31.742-51.1,54.461-100.579,72.699-156.539l41.798,13.447
		c-19.526,59.891-43.708,112.323-77.251,166.343L1423.113,1198.767z"/>
	<path d="M1378.046,1170.633c29.897-48.104,50.717-94.111,67.191-144.675l41.797,13.447
		c-17.524,53.775-39.663,102.839-71.743,154.479L1378.046,1170.633z"/>
	<path d="M1332.979,1142.498c27.406-44.064,46.593-86.466,61.683-132.812l41.797,13.447c-16.218,49.794-36.769,95.21-66.235,142.616
		L1332.979,1142.498z"/>
	<path d="M1242.845,1086.23c22.176-35.596,38.178-70.678,50.667-109.085l41.797,13.447c-13.44,41.307-30.667,79.444-55.219,118.889
		L1242.845,1086.23z"/>
	<path d="M1197.778,1058.095c19.418-31.131,33.975-62.799,45.159-97.221l41.797,13.447c-12.184,37.479-27.87,71.975-49.711,107.026
		L1197.778,1058.095z"/>
	<path d="M1152.711,1029.961c16.709-26.75,29.728-54.778,39.651-85.358l41.798,13.447c-10.62,32.696-24.699,63.903-44.203,95.162
		L1152.711,1029.961z"/>
	<path d="M1062.578,973.692c11.633-18.535,21.398-39.247,28.635-61.631l41.797,13.447c-8.292,25.6-19.357,49.348-33.187,71.435
		L1062.578,973.692z"/>
	<path d="M1017.511,945.558c9.06-14.379,17.232-31.474,23.127-49.767l41.797,13.447c-7.038,21.78-16.55,41.849-27.679,59.572
		L1017.511,945.558z"/>
	<path d="M882.31,861.155c3.704-6.166,4.495-8.344,6.602-14.177l41.797,13.447c-3.093,9.013-5.629,14.951-11.154,23.981
		L882.31,861.155z"/>
	<path d="M1554.967,1029.932c16.189-59.6,24.952-111.876,27.44-183.221l43.893,1.142c-2.533,72.958-11.296,128.561-29.035,193.859
		L1554.967,1029.932z"/>
	<path d="M1503.787,1015.677c15.11-55.651,23.18-104.018,25.51-170.349l43.893,1.142c-2.299,65.79-9.921,117.717-27.105,180.987
		L1503.787,1015.677z"/>
	<path d="M1452.607,1001.422c14.414-53.101,21.457-97.641,23.58-157.476l43.892,1.142c-2.313,65.668-10.297,113.311-25.175,168.114
		L1452.607,1001.422z"/>
	<path d="M1401.427,987.168c13.12-48.364,19.655-88.936,21.65-144.604l43.892,1.142c-1.996,56.178-8.341,100.326-23.245,155.242
		L1401.427,987.168z"/>
	<path d="M1350.247,972.913c12.856-47.411,18.003-84.461,19.72-131.731l43.893,1.142c-1.996,55.613-8.628,95.598-21.315,142.37
		L1350.247,972.913z"/>
	<path d="M1299.068,958.659c11.547-42.616,16.199-75.672,17.79-118.859l43.892,1.142c-1.746,47.973-7.089,84.144-19.385,129.497
		L1299.068,958.659z"/>
	<path d="M1196.708,930.149c9.423-34.844,12.676-60.456,13.93-93.114l43.892,1.142c-1.382,36.668-5.149,65.422-15.525,103.753
		L1196.708,930.149z"/>
	<path d="M1145.528,915.895c8.168-30.241,10.881-51.931,12-80.242l43.893,1.142c-1.252,32.474-4.508,57.267-13.595,90.88
		L1145.528,915.895z"/>
	<path d="M1094.348,901.64c6.925-25.691,9.088-43.433,10.07-67.369l43.892,1.142c-1.117,28.13-3.811,48.924-11.665,78.008
		L1094.348,901.64z"/>
	<path d="M1043.168,887.385c5.617-20.899,7.289-34.856,8.14-54.497l43.892,1.142c-0.985,23.808-3.125,40.607-9.735,65.135
		L1043.168,887.385z"/>
	<path d="M991.988,873.131c4.537-16.96,5.531-27.171,6.21-41.625l43.893,1.142c-0.794,18.115-2.23,31.513-7.805,52.263
		L991.988,873.131z"/>
	<path d="M940.809,858.876c3.365-13.89,3.633-16.721,4.28-28.752l43.892,1.142c-0.677,14.143-1.623,23.482-5.875,39.391
		L940.809,858.876z"/>
	<path d="M889.629,844.621c3.062-14.651,2.042-13.107,2.349-15.88l43.893,1.142c-0.71,9.181,0.079,9.674-3.945,26.518
		L889.629,844.621z"/>
	<path d="M838.449,830.367c0,0-0.006-0.038,0.017-0.096c0,0,0.069-0.251,0.07-0.252c0.385-2.658,0.333-2.66,0.333-2.66l43.892,1.142
		c-0.635,5.123,0.925-1.302-2.014,13.646L838.449,830.367z"/>
</g>
</svg>
